<?xml version="1.0" encoding="UTF-8" standalone="no"?>
<!DOCTYPE svg PUBLIC "-//W3C//DTD SVG 1.1//EN"
 "http://www.w3.org/Graphics/SVG/1.1/DTD/svg11.dtd">
<!-- Generated by graphviz version 3.0.0 (20220226.1711)
 -->
<!-- Title: G Pages: 1 -->
<svg width="358pt" height="499pt"
 viewBox="0.00 0.00 358.37 499.00" xmlns="http://www.w3.org/2000/svg" xmlns:xlink="http://www.w3.org/1999/xlink">
<g id="graph0" class="graph" transform="scale(1 1) rotate(0) translate(4 495)">
<title>G</title>
<polygon fill="white" stroke="transparent" points="-4,4 -4,-495 354.37,-495 354.37,4 -4,4"/>
<!-- PP1 -->
<g id="node1" class="node">
<title>PP1</title>
<polygon fill="none" stroke="black" points="287.66,-450.54 287.66,-465.46 229.98,-476 148.39,-476 90.71,-465.46 90.71,-450.54 148.39,-440 229.98,-440 287.66,-450.54"/>
<text text-anchor="middle" x="189.19" y="-454.3" font-family="Times New Roman,serif" font-size="14.00">Physical Phenomenon</text>
<text text-anchor="middle" x="77.2" y="-479.8" font-family="Times New Roman,serif" font-size="14.00">PP:1</text>
</g>
<!-- ET1 -->
<g id="node2" class="node">
<title>ET1</title>
<polygon fill="none" stroke="black" points="123.62,-367 254.76,-367 301.46,-403 76.91,-403 123.62,-367"/>
<text text-anchor="middle" x="189.19" y="-381.3" font-family="Times New Roman,serif" font-size="14.00">Energy Translation</text>
<text text-anchor="middle" x="63.05" y="-406.8" font-family="Times New Roman,serif" font-size="14.00">ET:1</text>
</g>
<!-- PP1&#45;&gt;ET1 -->
<g id="edge1" class="edge">
<title>PP1&#45;&gt;ET1</title>
<path fill="none" stroke="black" d="M189.19,-439.81C189.19,-431.79 189.19,-422.05 189.19,-413.07"/>
<polygon fill="black" stroke="black" points="192.69,-413.03 189.19,-403.03 185.69,-413.03 192.69,-413.03"/>
</g>
<!-- PR1 -->
<g id="node3" class="node">
<title>PR1</title>
<ellipse fill="none" stroke="black" cx="135.19" cy="-312" rx="72.59" ry="18"/>
<text text-anchor="middle" x="135.19" y="-308.3" font-family="Times New Roman,serif" font-size="14.00">Processing result</text>
<text text-anchor="middle" x="48.39" y="-333.8" font-family="Times New Roman,serif" font-size="14.00">PR:1</text>
</g>
<!-- ET1&#45;&gt;PR1 -->
<g id="edge2" class="edge">
<title>ET1&#45;&gt;PR1</title>
<path fill="none" stroke="black" d="M176.11,-366.81C169.55,-358.18 161.47,-347.56 154.23,-338.03"/>
<polygon fill="black" stroke="black" points="156.98,-335.87 148.14,-330.03 151.41,-340.11 156.98,-335.87"/>
</g>
<!-- PR2 -->
<g id="node4" class="node">
<title>PR2</title>
<ellipse fill="none" stroke="black" cx="189.19" cy="-239" rx="114.28" ry="18"/>
<text text-anchor="middle" x="189.19" y="-235.3" font-family="Times New Roman,serif" font-size="14.00">Dependent Processing result</text>
<text text-anchor="middle" x="60.8" y="-260.8" font-family="Times New Roman,serif" font-size="14.00">PR:2</text>
</g>
<!-- PR1&#45;&gt;PR2 -->
<g id="edge3" class="edge">
<title>PR1&#45;&gt;PR2</title>
<path fill="none" stroke="black" d="M147.98,-294.17C154.54,-285.55 162.67,-274.86 169.97,-265.27"/>
<polygon fill="black" stroke="black" points="172.84,-267.28 176.11,-257.2 167.27,-263.04 172.84,-267.28"/>
</g>
<!-- PR2&#45;&gt;ET1 -->
<g id="edge4" class="edge">
<title>PR2&#45;&gt;ET1</title>
<path fill="none" stroke="black" d="M200.78,-257.15C206.98,-267.37 213.98,-280.87 217.19,-294 220.98,-309.54 220.98,-314.46 217.19,-330 214.83,-339.64 210.43,-349.49 205.81,-358.08"/>
<polygon fill="black" stroke="black" points="202.72,-356.43 200.78,-366.85 208.79,-359.91 202.72,-356.43"/>
<text text-anchor="middle" x="246.19" y="-308.3" font-family="Times New Roman,serif" font-size="14.00">comment</text>
</g>
<!-- OM1 -->
<g id="node5" class="node">
<title>OM1</title>
<polyline fill="none" stroke="black" points="139.19,-152.5 239.19,-152.5 "/>
<polyline fill="none" stroke="black" points="239.19,-177.5 139.19,-177.5 "/>
<text text-anchor="start" x="172.69" y="-161.3" font-family="Times New Roman,serif" font-size="14.00">OM:1</text>
</g>
<!-- PR2&#45;&gt;OM1 -->
<g id="edge5" class="edge">
<title>PR2&#45;&gt;OM1</title>
<path fill="none" stroke="black" d="M189.19,-220.69C189.19,-212.73 189.19,-203.09 189.19,-194.16"/>
<polygon fill="black" stroke="black" points="192.69,-194.15 189.19,-184.15 185.69,-194.15 192.69,-194.15"/>
</g>
<!-- PR3 -->
<g id="node6" class="node">
<title>PR3</title>
<ellipse fill="none" stroke="black" cx="189.19" cy="-92" rx="161.37" ry="18"/>
<text text-anchor="middle" x="189.19" y="-88.3" font-family="Times New Roman,serif" font-size="14.00">Processing result Dependent on all others</text>
<text text-anchor="middle" x="14" y="-113.8" font-family="Times New Roman,serif" font-size="14.00">PR:3</text>
</g>
<!-- OM1&#45;&gt;PR3 -->
<g id="edge6" class="edge">
<title>OM1&#45;&gt;PR3</title>
<path fill="none" stroke="black" d="M189.19,-146.83C189.19,-138.95 189.19,-129.48 189.19,-120.69"/>
<polygon fill="black" stroke="black" points="192.69,-120.47 189.19,-110.47 185.69,-120.47 192.69,-120.47"/>
</g>
<!-- OM2 -->
<g id="node7" class="node">
<title>OM2</title>
<polyline fill="none" stroke="black" points="139.19,-5.5 239.19,-5.5 "/>
<polyline fill="none" stroke="black" points="239.19,-30.5 139.19,-30.5 "/>
<text text-anchor="start" x="172.69" y="-14.3" font-family="Times New Roman,serif" font-size="14.00">OM:2</text>
</g>
<!-- PR3&#45;&gt;OM2 -->
<g id="edge7" class="edge">
<title>PR3&#45;&gt;OM2</title>
<path fill="none" stroke="black" d="M189.19,-73.69C189.19,-65.73 189.19,-56.09 189.19,-47.16"/>
<polygon fill="black" stroke="black" points="192.69,-47.15 189.19,-37.15 185.69,-47.15 192.69,-47.15"/>
</g>
</g>
</svg>
